<svg id="Ebene_1" data-name="Ebene 1" xmlns="http://www.w3.org/2000/svg" xmlns:xlink="http://www.w3.org/1999/xlink" viewBox="0 0 40.97 40.97"><defs><style>.cls-1{fill:none;}.cls-2{clip-path:url(#clip-path);}.cls-3{fill:#cd1719;}.cls-4{fill:#fff;}</style><clipPath id="clip-path" transform="translate(-277.5 -400.47)"><rect class="cls-1" x="277.5" y="400.47" width="40.97" height="40.97"/></clipPath></defs><g class="cls-2"><path class="cls-3" d="M284.76,400.47a7.26,7.26,0,0,0-7.26,7.26v26.46a7.25,7.25,0,0,0,7.26,7.25h26.46a7.25,7.25,0,0,0,7.25-7.25V407.73a7.26,7.26,0,0,0-7.25-7.26H284.76" transform="translate(-277.5 -400.47)"/><path class="cls-4" d="M283.81,408l8.86,8.86a2.88,2.88,0,0,0-.21,1.13v.32h-9v-8.68a3.45,3.45,0,0,1,.37-1.63m-.37,15.59h9v.32a3.16,3.16,0,0,0,.24,1.1l-8.86,8.86a4,4,0,0,1-.4-1.6Zm11.91-5.28h5.27v5.28h-5.27Zm-1.45,8a2.81,2.81,0,0,0,1.13.21h.32v9h-8.69a3.32,3.32,0,0,1-1.62-.37Zm6.72.21H301a3.2,3.2,0,0,0,1.1-.24l8.86,8.86a4.07,4.07,0,0,1-1.6.39h-8.69Zm11.54,7.42-8.86-8.86a2.71,2.71,0,0,0,.22-1.13v-.32h9v8.68a3.33,3.33,0,0,1-.37,1.63m.37-15.59h-9V418a3.16,3.16,0,0,0-.24-1.1l8.85-8.86a4,4,0,0,1,.4,1.6Zm-10.45-2.68a2.88,2.88,0,0,0-1.13-.21h-.33v-9h8.69a3.36,3.36,0,0,1,1.63.37Zm-6.73-.21H295a3.23,3.23,0,0,0-1.11.24l-8.85-8.86a4,4,0,0,1,1.59-.39h8.69ZM281.19,409v9.32h-1.94v5.28h1.94v9.32s0,4.84,4.83,4.84h9.33v1.94h5.27v-1.94H310s4.83,0,4.83-4.84V423.6h1.94v-5.28h-1.94V409s0-4.84-4.83-4.84h-9.33v-1.94h-5.27v1.94H286s-4.83,0-4.83,4.84" transform="translate(-277.5 -400.47)"/></g></svg>